# xmcd
#
# Track frame offsets:
#	150
#	16142
#	32482
#	48082
#	62150
#	79287
#	95700
#	113750
#	125922
#	142435
#	158237
#
# Disc length: 2354 seconds
#
# Revision: 1
# Processed by: cddbd v1.5.1PL0 Copyright (c) Steve Scherf et al.
# Submitted via: audiograbber 1.80
#
DISCID=9809300b
DTITLE=James Ridge - Which Way To Go
DYEAR=1900
DGENRE=
TTITLE0=Which Way To Go
TTITLE1=One More Time
TTITLE2=Hometown Train
TTITLE3=Little Rock Rollin Man
TTITLE4=Just The Only Way
TTITLE5=Take You Or Leave You
TTITLE6=Don't Count On Me Anymore
TTITLE7=She Was There
TTITLE8=He's Coming Back
TTITLE9=It's a Dirty Job (But Someone's Got To Do It)
TTITLE10=Summertime Mary
EXTD=
EXTT0=
EXTT1=
EXTT2=
EXTT3=
EXTT4=
EXTT5=
EXTT6=
EXTT7=
EXTT8=
EXTT9=
EXTT10=
PLAYORDER=
